# xmcd
#
# Track frame offsets: 
#        150
#        21177
#        33806
#        45293
#        56266
#        73888
#        86859
#        101226
#        113764
#        132059
#        143152
#        159151
#        174101
#        187158
#        198098
#        210465
#        222167
#        234889
#        246707
#        261671
#
# Disc length: 3633 seconds
#
# Revision: 0
# Processed by: cddbd v1.5.2PL0 Copyright (c) Steve Scherf et al.
# Submitted via: ExactAudioCopy v1.3
#
DISCID=180e2f14
DTITLE=Marty Robbins - Marty Robbins' All-Time Greatest Hits
DYEAR=1972
DGENRE=Country
TTITLE0=El Paso
TTITLE1=Streets of Laredo
TTITLE2=Ribbon of Darkness
TTITLE3=Love is Blue
TTITLE4=Big Iron
TTITLE5=Devil Woman
TTITLE6=Don't Worry About Me
TTITLE7=Tonight Carmen
TTITLE8=You Gave Me A Mountain
TTITLE9=Kaw-Liga
TTITLE10=My Woman, My Woman, My Wife
TTITLE11=Padre
TTITLE12=The Hanging Tree
TTITLE13=Red River Valley
TTITLE14=Joli Girl
TTITLE15=The Girl With Gardinias In Her Hair
TTITLE16=It's a Sin
TTITLE17=Maria
TTITLE18=I Walk Alone
TTITLE19=Aloha Oe (Farewell)
EXTD=
EXTT0=
EXTT1=
EXTT2=
EXTT3=
EXTT4=
EXTT5=
EXTT6=
EXTT7=
EXTT8=
EXTT9=
EXTT10=
EXTT11=
EXTT12=
EXTT13=
EXTT14=
EXTT15=
EXTT16=
EXTT17=
EXTT18=
EXTT19=
PLAYORDER=
